HIERARCHY
ROOT hip
{
	OFFSET 0.000000 0.000000 0.000000
	CHANNELS 6 Xposition Yposition Zposition Xrotation Zrotation Yrotation 
	JOINT abdomen
	{
		OFFSET 0.000000 3.422050 0.000000
		CHANNELS 3 Xrotation Zrotation Yrotation 
		JOINT chest
		{
			OFFSET 0.000000 8.486693 -0.684411
			CHANNELS 3 Xrotation Zrotation Yrotation 
			JOINT neck
			{
				OFFSET 0.000000 10.266162 -0.273764
				CHANNELS 3 Xrotation Zrotation Yrotation 
				JOINT head
				{
					OFFSET 0.000000 3.148285 0.000000
					CHANNELS 3 Xrotation Zrotation Yrotation 
					End Site
					{
						OFFSET 0.000000 3.148289 0.000000
					}
				}
			}
			JOINT lCollar
			{
				OFFSET 3.422053 6.707223 -0.821293
				CHANNELS 3 Yrotation Zrotation Xrotation 
				JOINT lShldr
				{
					OFFSET 3.285171 0.000000 0.000000
					CHANNELS 3 Zrotation Yrotation Xrotation 
					JOINT lForeArm
					{
						OFFSET 10.129278 0.000000 0.000000
						CHANNELS 3 Yrotation Zrotation Xrotation 
						JOINT lHand
						{
							OFFSET 8.486692 0.000000 0.000000
							CHANNELS 3 Zrotation Yrotation Xrotation 
							End Site
							{
								OFFSET 4.106464 0.000000 0.000000
							}
						}
					}
				}
			}
			JOINT rCollar
			{
				OFFSET -3.558935 6.707223 -0.821293
				CHANNELS 3 Yrotation Zrotation Xrotation 
				JOINT rShldr
				{
					OFFSET -3.148289 0.000000 0.000000
					CHANNELS 3 Zrotation Yrotation Xrotation 
					JOINT rForeArm
					{
						OFFSET -10.266159 0.000000 0.000000
						CHANNELS 3 Yrotation Zrotation Xrotation 
						JOINT rHand
						{
							OFFSET -8.349810 0.000000 0.000000
							CHANNELS 3 Zrotation Yrotation Xrotation 
							End Site
							{
								OFFSET -4.106464 0.000000 0.000000
							}
						}
					}
				}
			}
		}
	}
	JOINT lThigh
	{
		OFFSET 5.338403 -1.642589 1.368821
		CHANNELS 3 Xrotation Zrotation Yrotation 
		JOINT lShin
		{
			OFFSET -2.053232 -20.121670 0.000000
			CHANNELS 3 Xrotation Zrotation Yrotation 
			JOINT lFoot
			{
				OFFSET 0.000000 -19.300380 -1.231939
				CHANNELS 3 Xrotation Yrotation Zrotation 
				End Site
				{
					OFFSET 0.000000 -2.463878 4.653993
				}
			}
		}
	}
	JOINT rThigh
	{
		OFFSET -5.338403 -1.642589 1.368821
		CHANNELS 3 Xrotation Zrotation Yrotation 
		JOINT rShin
		{
			OFFSET 2.053232 -20.121670 0.000000
			CHANNELS 3 Xrotation Zrotation Yrotation 
			JOINT rFoot
			{
				OFFSET 0.000000 -19.300380 -1.231939
				CHANNELS 3 Xrotation Yrotation Zrotation 
				End Site
				{
					OFFSET 0.000000 -2.463878 4.653993
				}
			}
		}
	}
}
MOTION
Frames: 18
Frame Time: 0.076905
3.979968 20.018240 -15.075762 33.997101 0.000000 0.000000 44.715523 0.468792 -0.225023 14.278935 3.961491 0.120552 -1.859665 0.358923 -0.040646 -2.098491 0.037550 -0.013467 -15.133150 -9.723723 -12.869786 -48.313816 -51.128132 12.720778 -28.816814 3.224140 -18.840422 8.030571 6.212780 -40.455055 15.929340 -0.251836 -13.157083 41.303425 61.777554 7.472587 35.414986 -2.308643 -18.861845 -47.452049 -17.044741 -22.067560 -59.323170 21.734404 -32.370518 102.647545 4.348650 -4.962467 66.275520 -26.257240 11.896908 -61.533051 -11.726115 15.287647 118.323387 -4.666753 3.253762 57.575272 7.815547 -6.867220 
3.979968 20.018240 -15.075762 33.997101 0.000000 0.000000 44.715523 0.468792 -0.225023 14.412039 3.957269 0.119109 -2.739333 0.531125 -0.049120 -3.091479 0.055901 -0.018326 -15.282053 -9.494642 -12.895968 -46.967575 -51.672676 12.319464 -28.776602 3.232907 -18.842922 8.121876 5.683021 -40.445629 15.922796 -0.404674 -13.157699 39.637165 62.254482 6.708344 35.414722 -2.309502 -18.862007 -47.871357 -17.075884 -21.822222 -59.323177 21.734409 -32.370522 102.647545 4.348650 -4.962467 66.275520 -26.257240 11.896908 -61.533051 -11.726114 15.287645 118.323387 -4.666753 3.253762 57.575272 7.815547 -6.867220 
3.979968 20.018240 -15.075762 33.997101 0.000000 0.000000 44.715523 0.468792 -0.225023 14.545134 3.953053 0.117656 -3.619919 0.703346 -0.060248 -4.085670 0.074186 -0.023510 -15.430762 -9.265471 -12.921530 -45.596390 -52.212090 11.891752 -28.736385 3.241672 -18.845427 8.213045 5.153059 -40.437057 15.916252 -0.557521 -13.158333 37.927769 62.721375 5.900629 35.414467 -2.310359 -18.862169 -48.290630 -17.105301 -21.576757 -59.323170 21.734407 -32.370518 102.647545 4.348650 -4.962467 66.275520 -26.257240 11.896908 -61.533051 -11.726114 15.287645 118.323387 -4.666753 3.253762 57.575272 7.815547 -6.867220 
3.979968 20.018240 -15.075762 33.997101 0.000000 0.000000 44.715523 0.468792 -0.225023 14.678222 3.948838 0.116193 -4.501335 0.875524 -0.074037 -5.080917 0.092398 -0.029016 -15.579285 -9.036219 -12.946477 -44.199612 -52.745800 11.436872 -28.696177 3.250435 -18.847937 8.304091 4.622922 -40.429337 15.909710 -0.710379 -13.158987 36.174255 63.177448 5.048337 35.414211 -2.311219 -18.862331 -48.709854 -17.132982 -21.331182 -59.323170 21.734404 -32.370518 102.647545 4.348650 -4.962467 66.275520 -26.257240 11.896908 -61.533051 -11.726115 15.287647 118.323387 -4.666753 3.253762 57.575272 7.815547 -6.867220 
3.979968 20.018240 -15.075762 33.997101 0.000000 0.000000 44.715523 0.468792 -0.225023 14.811299 3.944628 0.114721 -5.383490 1.047597 -0.090486 -6.077070 0.110528 -0.034843 -15.727622 -8.806887 -12.970805 -42.776638 -53.273224 10.954098 -28.655960 3.259196 -18.850454 8.395025 4.092632 -40.422459 15.903160 -0.863244 -13.159654 34.375702 63.621834 4.150429 35.413952 -2.312077 -18.862494 -49.128990 -17.158928 -21.085520 -59.323177 21.734409 -32.370522 102.647545 4.348650 -4.962467 66.275520 -26.257240 11.896908 -61.533051 -11.726112 15.287645 118.323387 -4.666753 3.253762 57.575264 7.815547 -6.867219 
3.979968 20.018240 -15.075762 33.997101 0.000000 0.000000 44.715523 0.468792 -0.225023 14.944368 3.940422 0.113239 -6.266288 1.219502 -0.109597 -7.073984 0.128568 -0.040989 -15.875779 -8.577481 -12.994520 -41.326881 -53.793766 10.442727 -28.615749 3.267956 -18.852982 8.485861 3.562216 -40.416439 15.896611 -1.016118 -13.160341 32.531330 64.053658 3.206023 35.413692 -2.312935 -18.862654 -49.548031 -17.183142 -20.839788 -59.323170 21.734407 -32.370518 102.647545 4.348650 -4.962467 66.275520 -26.257240 11.896908 -61.533051 -11.726114 15.287645 118.323387 -4.666753 3.253762 57.575272 7.815547 -6.867220 
3.979968 20.018240 -15.075762 33.997101 0.000000 0.000000 44.715523 0.468792 -0.225023 15.077431 3.936220 0.111747 -7.149642 1.391176 -0.131367 -8.071503 0.146509 -0.047452 -16.023760 -8.348006 -13.017625 -39.849777 -54.306831 9.902059 -28.575531 3.276713 -18.855511 8.576606 3.031697 -40.411247 15.890057 -1.168999 -13.161045 30.640522 64.472031 2.214385 35.413437 -2.313794 -18.862818 -49.966938 -17.205620 -20.594015 -59.323170 21.734407 -32.370518 102.647545 4.348650 -4.962467 66.275520 -26.257240 11.896908 -61.533051 -11.726114 15.287645 118.323387 -4.666753 3.253762 57.575272 7.815547 -6.867220 
3.979968 20.018240 -15.075762 33.997101 0.000000 0.000000 44.715523 0.468792 -0.225023 15.210476 3.932019 0.110246 -8.033455 1.562558 -0.155794 -9.069481 0.164342 -0.054230 -16.171566 -8.118465 -13.040116 -38.344780 -54.811794 9.331448 -28.535316 3.285470 -18.858047 8.667274 2.501100 -40.406910 15.883501 -1.321887 -13.161767 28.702877 64.876060 1.174987 35.413174 -2.314652 -18.862980 -50.385715 -17.226374 -20.348221 -59.323170 21.734404 -32.370518 102.647545 4.348650 -4.962467 66.275520 -26.257240 11.896908 -61.533051 -11.726112 15.287645 118.323387 -4.666753 3.253762 57.575272 7.815547 -6.867220 
3.979968 20.018240 -15.075762 33.997101 0.000000 0.000000 44.715523 0.468792 -0.225023 15.343514 3.927824 0.108735 -8.917635 1.733585 -0.182872 -10.067763 0.182061 -0.061319 -16.319202 -7.888863 -13.062000 -36.811401 -55.308033 8.730281 -28.495096 3.294222 -18.860590 8.757877 1.970450 -40.403412 15.876945 -1.474782 -13.162510 26.718134 65.264755 0.087502 35.412914 -2.315511 -18.863140 -50.804298 -17.245388 -20.102425 -59.323170 21.734407 -32.370518 102.647545 4.348650 -4.962467 66.275520 -26.257240 11.896908 -61.533051 -11.726114 15.287645 118.323387 -4.666753 3.253762 57.575264 7.815547 -6.867219 
3.979968 20.018240 -15.075762 33.997101 0.000000 0.000000 44.715523 0.468792 -0.225023 15.476544 3.923634 0.107214 -9.802089 1.904194 -0.212594 -11.066202 0.199655 -0.068717 -16.466669 -7.659200 -13.083272 -35.249222 -55.794910 8.098014 -28.454878 3.302975 -18.863136 8.848430 1.439772 -40.400753 15.870385 -1.627683 -13.163267 24.686409 65.637283 -1.048107 35.412655 -2.316369 -18.863302 -51.222702 -17.262680 -19.856653 -59.323170 21.734407 -32.370518 102.647545 4.348650 -4.962467 66.275520 -26.257240 11.896908 -61.533051 -11.726114 15.287645 118.323387 -4.666753 3.253762 57.575272 7.815547 -6.867220 
3.979968 20.018240 -15.075762 33.997101 0.000000 0.000000 44.715523 0.468792 -0.225023 15.609563 3.919446 0.105684 -10.686723 2.074326 -0.244950 -12.064643 0.217118 -0.076421 -16.613974 -7.429487 -13.103939 -33.657818 -56.271740 7.434135 -28.414661 3.311724 -18.865690 8.938938 0.909090 -40.398930 15.863820 -1.780589 -13.164041 22.607983 65.992622 -2.231628 35.412403 -2.317227 -18.863464 -51.640896 -17.278246 -19.610924 -59.323170 21.734404 -32.370518 102.647545 4.348650 -4.962467 66.275520 -26.257240 11.896908 -61.533051 -11.726115 15.287647 118.323387 -4.666753 3.253762 57.575272 7.815547 -6.867220 
3.979968 20.018240 -15.075762 33.997101 0.000000 0.000000 44.715523 0.468792 -0.225023 15.742569 3.915262 0.104144 -11.571444 2.243917 -0.279930 -13.062937 0.234442 -0.084426 -16.761116 -7.199725 -13.124000 -32.036903 -56.737892 6.738221 -28.374449 3.320474 -18.868254 9.029416 0.378429 -40.397949 15.857254 -1.933500 -13.164834 20.483555 66.329872 -3.462493 35.412144 -2.318085 -18.863626 -52.058842 -17.292086 -19.365257 -59.323170 21.734407 -32.370518 102.647545 4.348650 -4.962467 66.275520 -26.257240 11.896908 -61.533051 -11.726114 15.287645 118.323387 -4.666753 3.253762 57.575272 7.815547 -6.867220 
3.979968 20.018240 -15.075762 33.997101 0.000000 0.000000 44.715523 0.468792 -0.225023 15.875561 3.911082 0.102594 -12.456154 2.412905 -0.317522 -14.060928 0.251618 -0.092730 -16.908100 -6.969913 -13.143452 -30.386238 -57.192699 6.009929 -28.334229 3.329221 -18.870825 9.119877 -0.152185 -40.397808 15.850683 -2.086415 -13.165643 18.314144 66.648109 -4.739784 35.411884 -2.318944 -18.863789 -52.476521 -17.304203 -19.119682 -59.323170 21.734407 -32.370518 102.647545 4.348650 -4.962467 66.275520 -26.257240 11.896908 -61.533051 -11.726114 15.287645 118.323387 -4.666753 3.253762 57.575264 7.815547 -6.867219 
3.979968 20.018240 -15.075762 33.997101 0.000000 0.000000 44.715523 0.468792 -0.225023 16.008543 3.906906 0.101035 -13.340760 2.581231 -0.357711 -15.058471 0.268640 -0.101327 -17.054924 -6.740064 -13.162301 -28.705673 -57.635479 5.249005 -28.294004 3.337964 -18.873392 9.210329 -0.682728 -40.398502 15.844108 -2.239333 -13.166470 16.101126 66.946457 -6.062216 35.411625 -2.319803 -18.863953 -52.893940 -17.314606 -18.874218 -59.323170 21.734407 -32.370518 102.647545 4.348650 -4.962467 66.275520 -26.257240 11.896908 -61.533051 -11.726114 15.287645 118.323387 -4.666753 3.253762 57.575272 7.815547 -6.867220 
3.979968 20.018240 -15.075762 33.997101 0.000000 0.000000 44.715523 0.468792 -0.225023 16.141514 3.902735 0.099467 -14.225171 2.748836 -0.400480 -16.055414 0.285499 -0.110215 -17.201605 -6.510177 -13.180550 -26.995161 -58.065563 4.455298 -28.253794 3.346708 -18.875977 9.300787 -1.213177 -40.400036 15.837537 -2.392256 -13.167317 13.846338 67.224045 -7.428074 35.411369 -2.320661 -18.864113 -53.311035 -17.323294 -18.628883 -59.323177 21.734409 -32.370522 102.647545 4.348650 -4.962467 66.275520 -26.257240 11.896908 -61.533051 -11.726112 15.287645 118.323387 -4.666753 3.253762 57.575272 7.815547 -6.867220 
3.979968 20.018240 -15.075762 33.997101 0.000000 0.000000 44.715523 0.468792 -0.225023 16.274466 3.898566 0.097888 -15.109285 2.915657 -0.445812 -17.051605 0.302188 -0.119387 -17.348137 -6.280258 -13.198196 -25.254774 -58.482273 3.628769 -28.213568 3.355448 -18.878559 9.391259 -1.743506 -40.402409 15.830958 -2.545180 -13.168180 11.552002 67.480034 -8.835227 35.411110 -2.321519 -18.864275 -53.727814 -17.330271 -18.383705 -59.323170 21.734407 -32.370518 102.647545 4.348650 -4.962467 66.275520 -26.257240 11.896908 -61.533051 -11.726114 15.287645 118.323387 -4.666753 3.253762 57.575272 7.815547 -6.867220 
3.979968 20.018240 -15.075762 33.997101 0.000000 0.000000 44.715523 0.468792 -0.225023 16.407415 3.894403 0.096301 -15.993018 3.081638 -0.493687 -18.046896 0.318700 -0.128839 -17.494522 -6.050311 -13.215243 -23.484701 -58.884933 2.769517 -28.173349 3.364187 -18.881153 9.481760 -2.273689 -40.405617 15.824381 -2.698107 -13.169064 9.220781 67.713646 -10.281111 35.410851 -2.322378 -18.864437 -54.144241 -17.335539 -18.138700 -59.323170 21.734407 -32.370518 102.647545 4.348650 -4.962467 66.275520 -26.257240 11.896908 -61.533051 -11.726114 15.287645 118.323387 -4.666753 3.253762 57.575272 7.815547 -6.867220 
3.979968 20.018240 -15.075762 33.997101 0.000000 0.000000 44.715523 0.468792 -0.225023 16.540348 3.890244 0.094704 -16.876268 3.246719 -0.544083 -19.041134 0.335029 -0.138566 -17.640766 -5.820338 -13.231691 -21.685284 -59.272896 1.877776 -28.133131 3.372924 -18.883751 9.572298 -2.803702 -40.409657 15.817796 -2.851036 -13.169962 6.855794 67.924240 -11.762731 35.410595 -2.323236 -18.864599 -54.560287 -17.339106 -17.893888 -59.323177 21.734409 -32.370522 102.647545 4.348650 -4.962467 66.275520 -26.257240 11.896908 -61.533051 -11.726115 15.287647 118.323387 -4.666753 3.253762 57.575279 7.815547 -6.867220 
